# xmcd CD database file
#
# Track frame offsets:
#	183
#	20943
#	45600
#	62668
#	80538
#	108113
#	130783
#	151975
#	172650
#	194800
#	219248
#
# Disc length: 3161 seconds
#
# Revision: 0
# Processed by: cddbd v1.5.2PL0 Copyright (c) Steve Scherf et al.
# Submitted via: CDex 1.81
#
DISCID=8e0c570b
DTITLE=Red Richards - My Romance
DYEAR=1993
DGENRE=Jazz
TTITLE0=I Wished on the moon
TTITLE1=Dorothy
TTITLE2=I Would do Most Anything for you
TTITLE3=Drop me off in Harlem
TTITLE4=I Should Care
TTITLE5=Darn That Dream
TTITLE6=My Romance
TTITLE7=Idahoe
TTITLE8=It's over because we're Through
TTITLE9=Louisana
TTITLE10=Three Little Words
EXTD=YEAR: 1993
EXTT0=
EXTT1=
EXTT2=
EXTT3=
EXTT4=
EXTT5=
EXTT6=
EXTT7=
EXTT8=
EXTT9=
EXTT10=
PLAYORDER=
